<mxfile host="Electron" modified="2021-03-23T07:20:17.984Z" agent="5.0 (Windows NT 10.0; Win64; x64) AppleWebKit/537.36 (KHTML, like Gecko) draw.io/14.1.8 Chrome/87.0.4280.88 Electron/11.1.1 Safari/537.36" etag="NFoAapsP37m79KZOBbxe" compressed="false" version="14.1.8" type="device">
  <diagram id="f7sTP2X1FfvYCHsvGPor" name="Seite-1">
    <mxGraphModel dx="905" dy="569" grid="1" gridSize="10" guides="1" tooltips="1" connect="1" arrows="1" fold="1" page="1" pageScale="1" pageWidth="827" pageHeight="1169" math="0" shadow="0">
      <root>
        <mxCell id="0" />
        <mxCell id="1" parent="0" />
        <mxCell id="AyjH158HO-UM74ihSk_F-1" value="R&amp;amp;D" style="rounded=0;whiteSpace=wrap;html=1;fillColor=#dae8fc;strokeColor=#6c8ebf;fontStyle=1" vertex="1" parent="1">
          <mxGeometry x="40" y="80" width="80" height="40" as="geometry" />
        </mxCell>
        <mxCell id="AyjH158HO-UM74ihSk_F-2" value="Produktion" style="rounded=0;whiteSpace=wrap;html=1;fillColor=#dae8fc;strokeColor=#6c8ebf;fontStyle=1" vertex="1" parent="1">
          <mxGeometry x="200" y="80" width="80" height="40" as="geometry" />
        </mxCell>
        <mxCell id="AyjH158HO-UM74ihSk_F-3" value="Abteilung A" style="rounded=0;whiteSpace=wrap;html=1;fillColor=#dae8fc;strokeColor=#6c8ebf;" vertex="1" parent="1">
          <mxGeometry x="140" y="160" width="80" height="40" as="geometry" />
        </mxCell>
        <mxCell id="AyjH158HO-UM74ihSk_F-5" value="Abteilung B" style="rounded=0;whiteSpace=wrap;html=1;fillColor=#dae8fc;strokeColor=#6c8ebf;" vertex="1" parent="1">
          <mxGeometry x="260" y="160" width="80" height="40" as="geometry" />
        </mxCell>
        <mxCell id="AyjH158HO-UM74ihSk_F-7" value="Team 1" style="rounded=0;whiteSpace=wrap;html=1;fillColor=#fff2cc;strokeColor=#d6b656;" vertex="1" parent="1">
          <mxGeometry x="200" y="240" width="80" height="40" as="geometry" />
        </mxCell>
        <mxCell id="AyjH158HO-UM74ihSk_F-9" value="" style="endArrow=none;html=1;exitX=0.5;exitY=0;exitDx=0;exitDy=0;fillColor=#dae8fc;strokeColor=#6c8ebf;" edge="1" parent="1" source="AyjH158HO-UM74ihSk_F-1">
          <mxGeometry width="50" height="50" relative="1" as="geometry">
            <mxPoint x="200" y="50" as="sourcePoint" />
            <mxPoint x="360" y="40" as="targetPoint" />
            <Array as="points">
              <mxPoint x="80" y="40" />
            </Array>
          </mxGeometry>
        </mxCell>
        <mxCell id="AyjH158HO-UM74ihSk_F-10" value="" style="endArrow=none;html=1;exitX=0.5;exitY=0;exitDx=0;exitDy=0;fillColor=#dae8fc;strokeColor=#6c8ebf;" edge="1" parent="1" source="AyjH158HO-UM74ihSk_F-2">
          <mxGeometry width="50" height="50" relative="1" as="geometry">
            <mxPoint x="340" y="120" as="sourcePoint" />
            <mxPoint x="240" y="40" as="targetPoint" />
          </mxGeometry>
        </mxCell>
        <mxCell id="AyjH158HO-UM74ihSk_F-11" value="" style="endArrow=none;html=1;dashed=1;fillColor=#dae8fc;strokeColor=#6c8ebf;" edge="1" parent="1">
          <mxGeometry width="50" height="50" relative="1" as="geometry">
            <mxPoint x="320" y="40" as="sourcePoint" />
            <mxPoint x="320" y="10" as="targetPoint" />
          </mxGeometry>
        </mxCell>
        <mxCell id="AyjH158HO-UM74ihSk_F-12" value="" style="endArrow=none;html=1;dashed=1;fillColor=#dae8fc;strokeColor=#6c8ebf;" edge="1" parent="1">
          <mxGeometry width="50" height="50" relative="1" as="geometry">
            <mxPoint x="360" y="40" as="sourcePoint" />
            <mxPoint x="400" y="40" as="targetPoint" />
          </mxGeometry>
        </mxCell>
        <mxCell id="AyjH158HO-UM74ihSk_F-13" value="" style="endArrow=none;html=1;dashed=1;entryX=0.5;entryY=1;entryDx=0;entryDy=0;fillColor=#dae8fc;strokeColor=#6c8ebf;" edge="1" parent="1" target="AyjH158HO-UM74ihSk_F-1">
          <mxGeometry width="50" height="50" relative="1" as="geometry">
            <mxPoint x="80" y="160" as="sourcePoint" />
            <mxPoint x="110" y="160" as="targetPoint" />
          </mxGeometry>
        </mxCell>
        <mxCell id="AyjH158HO-UM74ihSk_F-14" value="" style="endArrow=none;html=1;exitX=0.5;exitY=1;exitDx=0;exitDy=0;entryX=0.5;entryY=0;entryDx=0;entryDy=0;fillColor=#dae8fc;strokeColor=#6c8ebf;" edge="1" parent="1" source="AyjH158HO-UM74ihSk_F-2" target="AyjH158HO-UM74ihSk_F-3">
          <mxGeometry width="50" height="50" relative="1" as="geometry">
            <mxPoint x="400" y="90" as="sourcePoint" />
            <mxPoint x="450" y="40" as="targetPoint" />
            <Array as="points">
              <mxPoint x="240" y="140" />
              <mxPoint x="180" y="140" />
            </Array>
          </mxGeometry>
        </mxCell>
        <mxCell id="AyjH158HO-UM74ihSk_F-15" value="" style="endArrow=none;html=1;exitX=0.5;exitY=0;exitDx=0;exitDy=0;entryX=0.5;entryY=1;entryDx=0;entryDy=0;fillColor=#dae8fc;strokeColor=#6c8ebf;" edge="1" parent="1" source="AyjH158HO-UM74ihSk_F-5" target="AyjH158HO-UM74ihSk_F-2">
          <mxGeometry width="50" height="50" relative="1" as="geometry">
            <mxPoint x="340" y="110" as="sourcePoint" />
            <mxPoint x="390" y="60" as="targetPoint" />
            <Array as="points">
              <mxPoint x="300" y="140" />
              <mxPoint x="240" y="140" />
            </Array>
          </mxGeometry>
        </mxCell>
        <mxCell id="AyjH158HO-UM74ihSk_F-16" value="" style="endArrow=none;html=1;entryX=0.5;entryY=1;entryDx=0;entryDy=0;dashed=1;fillColor=#dae8fc;strokeColor=#6c8ebf;" edge="1" parent="1" target="AyjH158HO-UM74ihSk_F-3">
          <mxGeometry width="50" height="50" relative="1" as="geometry">
            <mxPoint x="180" y="240" as="sourcePoint" />
            <mxPoint x="120" y="250" as="targetPoint" />
          </mxGeometry>
        </mxCell>
        <mxCell id="AyjH158HO-UM74ihSk_F-17" value="" style="endArrow=none;html=1;entryX=0.5;entryY=1;entryDx=0;entryDy=0;exitX=0.5;exitY=0;exitDx=0;exitDy=0;fillColor=#dae8fc;strokeColor=#6c8ebf;" edge="1" parent="1" source="AyjH158HO-UM74ihSk_F-7" target="AyjH158HO-UM74ihSk_F-5">
          <mxGeometry width="50" height="50" relative="1" as="geometry">
            <mxPoint x="480" y="230" as="sourcePoint" />
            <mxPoint x="530" y="180" as="targetPoint" />
            <Array as="points">
              <mxPoint x="240" y="220" />
              <mxPoint x="300" y="220" />
            </Array>
          </mxGeometry>
        </mxCell>
        <mxCell id="AyjH158HO-UM74ihSk_F-18" value="" style="endArrow=none;html=1;exitX=0.5;exitY=1;exitDx=0;exitDy=0;entryX=0.5;entryY=0;entryDx=0;entryDy=0;fillColor=#dae8fc;strokeColor=#6c8ebf;" edge="1" parent="1" source="AyjH158HO-UM74ihSk_F-5" target="AyjH158HO-UM74ihSk_F-31">
          <mxGeometry width="50" height="50" relative="1" as="geometry">
            <mxPoint x="400" y="230" as="sourcePoint" />
            <mxPoint x="360" y="240" as="targetPoint" />
            <Array as="points">
              <mxPoint x="300" y="220" />
              <mxPoint x="360" y="220" />
            </Array>
          </mxGeometry>
        </mxCell>
        <mxCell id="AyjH158HO-UM74ihSk_F-19" value="Mitarbeiter" style="ellipse;whiteSpace=wrap;html=1;fillColor=#fff2cc;strokeColor=#d6b656;" vertex="1" parent="1">
          <mxGeometry x="230" y="300" width="70" height="40" as="geometry" />
        </mxCell>
        <mxCell id="AyjH158HO-UM74ihSk_F-20" value="Mitarbeiter" style="ellipse;whiteSpace=wrap;html=1;fillColor=#dae8fc;strokeColor=#6c8ebf;" vertex="1" parent="1">
          <mxGeometry x="230" y="360" width="70" height="40" as="geometry" />
        </mxCell>
        <mxCell id="AyjH158HO-UM74ihSk_F-23" value="Mitarbeiter" style="ellipse;whiteSpace=wrap;html=1;fillColor=#fff2cc;strokeColor=#d6b656;" vertex="1" parent="1">
          <mxGeometry x="230" y="420" width="70" height="40" as="geometry" />
        </mxCell>
        <mxCell id="AyjH158HO-UM74ihSk_F-25" value="Mitarbeiter" style="ellipse;whiteSpace=wrap;html=1;fillColor=#fff2cc;strokeColor=#d6b656;" vertex="1" parent="1">
          <mxGeometry x="230" y="480" width="70" height="40" as="geometry" />
        </mxCell>
        <mxCell id="AyjH158HO-UM74ihSk_F-27" value="" style="endArrow=none;html=1;entryX=0.25;entryY=1;entryDx=0;entryDy=0;exitX=0;exitY=0.5;exitDx=0;exitDy=0;fillColor=#dae8fc;strokeColor=#6c8ebf;" edge="1" parent="1" source="AyjH158HO-UM74ihSk_F-25" target="AyjH158HO-UM74ihSk_F-7">
          <mxGeometry width="50" height="50" relative="1" as="geometry">
            <mxPoint x="90" y="330" as="sourcePoint" />
            <mxPoint x="140" y="280" as="targetPoint" />
            <Array as="points">
              <mxPoint x="220" y="500" />
            </Array>
          </mxGeometry>
        </mxCell>
        <mxCell id="AyjH158HO-UM74ihSk_F-28" value="" style="endArrow=none;html=1;entryX=0.25;entryY=1;entryDx=0;entryDy=0;exitX=0;exitY=0.5;exitDx=0;exitDy=0;fillColor=#dae8fc;strokeColor=#6c8ebf;" edge="1" parent="1" source="AyjH158HO-UM74ihSk_F-19" target="AyjH158HO-UM74ihSk_F-7">
          <mxGeometry width="50" height="50" relative="1" as="geometry">
            <mxPoint x="130" y="330" as="sourcePoint" />
            <mxPoint x="180" y="280" as="targetPoint" />
            <Array as="points">
              <mxPoint x="220" y="320" />
            </Array>
          </mxGeometry>
        </mxCell>
        <mxCell id="AyjH158HO-UM74ihSk_F-29" value="" style="endArrow=none;html=1;entryX=0.25;entryY=1;entryDx=0;entryDy=0;exitX=0;exitY=0.5;exitDx=0;exitDy=0;fillColor=#dae8fc;strokeColor=#6c8ebf;" edge="1" parent="1" source="AyjH158HO-UM74ihSk_F-20" target="AyjH158HO-UM74ihSk_F-7">
          <mxGeometry width="50" height="50" relative="1" as="geometry">
            <mxPoint x="90" y="390" as="sourcePoint" />
            <mxPoint x="140" y="340" as="targetPoint" />
            <Array as="points">
              <mxPoint x="220" y="380" />
            </Array>
          </mxGeometry>
        </mxCell>
        <mxCell id="AyjH158HO-UM74ihSk_F-30" value="" style="endArrow=none;html=1;entryX=0.25;entryY=1;entryDx=0;entryDy=0;exitX=0;exitY=0.5;exitDx=0;exitDy=0;fillColor=#dae8fc;strokeColor=#6c8ebf;" edge="1" parent="1" source="AyjH158HO-UM74ihSk_F-23" target="AyjH158HO-UM74ihSk_F-7">
          <mxGeometry width="50" height="50" relative="1" as="geometry">
            <mxPoint x="130" y="390" as="sourcePoint" />
            <mxPoint x="180" y="340" as="targetPoint" />
            <Array as="points">
              <mxPoint x="220" y="440" />
            </Array>
          </mxGeometry>
        </mxCell>
        <mxCell id="AyjH158HO-UM74ihSk_F-31" value="Team 2" style="rounded=0;whiteSpace=wrap;html=1;fillColor=#dae8fc;strokeColor=#6c8ebf;" vertex="1" parent="1">
          <mxGeometry x="320" y="240" width="80" height="40" as="geometry" />
        </mxCell>
        <mxCell id="AyjH158HO-UM74ihSk_F-32" value="Mitarbeiter" style="ellipse;whiteSpace=wrap;html=1;fillColor=#dae8fc;strokeColor=#6c8ebf;" vertex="1" parent="1">
          <mxGeometry x="350" y="300" width="70" height="40" as="geometry" />
        </mxCell>
        <mxCell id="AyjH158HO-UM74ihSk_F-33" value="Mitarbeiter" style="ellipse;whiteSpace=wrap;html=1;fillColor=#dae8fc;strokeColor=#6c8ebf;" vertex="1" parent="1">
          <mxGeometry x="350" y="360" width="70" height="40" as="geometry" />
        </mxCell>
        <mxCell id="AyjH158HO-UM74ihSk_F-34" value="Mitarbeiter" style="ellipse;whiteSpace=wrap;html=1;fillColor=#dae8fc;strokeColor=#6c8ebf;" vertex="1" parent="1">
          <mxGeometry x="350" y="420" width="70" height="40" as="geometry" />
        </mxCell>
        <mxCell id="AyjH158HO-UM74ihSk_F-35" value="Mitarbeiter" style="ellipse;whiteSpace=wrap;html=1;fillColor=#dae8fc;strokeColor=#6c8ebf;" vertex="1" parent="1">
          <mxGeometry x="350" y="480" width="70" height="40" as="geometry" />
        </mxCell>
        <mxCell id="AyjH158HO-UM74ihSk_F-36" value="" style="endArrow=none;html=1;entryX=0.25;entryY=1;entryDx=0;entryDy=0;exitX=0;exitY=0.5;exitDx=0;exitDy=0;fillColor=#dae8fc;strokeColor=#6c8ebf;" edge="1" parent="1" source="AyjH158HO-UM74ihSk_F-35" target="AyjH158HO-UM74ihSk_F-31">
          <mxGeometry width="50" height="50" relative="1" as="geometry">
            <mxPoint x="210" y="330" as="sourcePoint" />
            <mxPoint x="260" y="280" as="targetPoint" />
            <Array as="points">
              <mxPoint x="340" y="500" />
            </Array>
          </mxGeometry>
        </mxCell>
        <mxCell id="AyjH158HO-UM74ihSk_F-37" value="" style="endArrow=none;html=1;entryX=0.25;entryY=1;entryDx=0;entryDy=0;exitX=0;exitY=0.5;exitDx=0;exitDy=0;fillColor=#dae8fc;strokeColor=#6c8ebf;" edge="1" parent="1" source="AyjH158HO-UM74ihSk_F-32" target="AyjH158HO-UM74ihSk_F-31">
          <mxGeometry width="50" height="50" relative="1" as="geometry">
            <mxPoint x="250" y="330" as="sourcePoint" />
            <mxPoint x="300" y="280" as="targetPoint" />
            <Array as="points">
              <mxPoint x="340" y="320" />
            </Array>
          </mxGeometry>
        </mxCell>
        <mxCell id="AyjH158HO-UM74ihSk_F-38" value="" style="endArrow=none;html=1;entryX=0.25;entryY=1;entryDx=0;entryDy=0;exitX=0;exitY=0.5;exitDx=0;exitDy=0;fillColor=#dae8fc;strokeColor=#6c8ebf;" edge="1" parent="1" source="AyjH158HO-UM74ihSk_F-33" target="AyjH158HO-UM74ihSk_F-31">
          <mxGeometry width="50" height="50" relative="1" as="geometry">
            <mxPoint x="210" y="390" as="sourcePoint" />
            <mxPoint x="260" y="340" as="targetPoint" />
            <Array as="points">
              <mxPoint x="340" y="380" />
            </Array>
          </mxGeometry>
        </mxCell>
        <mxCell id="AyjH158HO-UM74ihSk_F-39" value="" style="endArrow=none;html=1;entryX=0.25;entryY=1;entryDx=0;entryDy=0;exitX=0;exitY=0.5;exitDx=0;exitDy=0;fillColor=#dae8fc;strokeColor=#6c8ebf;" edge="1" parent="1" source="AyjH158HO-UM74ihSk_F-34" target="AyjH158HO-UM74ihSk_F-31">
          <mxGeometry width="50" height="50" relative="1" as="geometry">
            <mxPoint x="250" y="390" as="sourcePoint" />
            <mxPoint x="300" y="340" as="targetPoint" />
            <Array as="points">
              <mxPoint x="340" y="440" />
            </Array>
          </mxGeometry>
        </mxCell>
      </root>
    </mxGraphModel>
  </diagram>
</mxfile>
